<svg width="24" height="24" viewBox="0 0 24 24" fill="none" xmlns="http://www.w3.org/2000/svg">
<path d="M17.6205 10.75C17.1905 10.75 16.8505 10.4 16.8505 9.98004C16.8505 9.61004 16.4805 8.84004 15.8605 8.17004C15.2505 7.52004 14.5805 7.14004 14.0205 7.14004C13.5905 7.14004 13.2505 6.79004 13.2505 6.37004C13.2505 5.95004 13.6005 5.60004 14.0205 5.60004C15.0205 5.60004 16.0705 6.14004 16.9905 7.11004C17.8505 8.02004 18.4005 9.15004 18.4005 9.97004C18.4005 10.4 18.0505 10.75 17.6205 10.75Z" fill="white"/>
<path d="M21.2298 10.7499C20.7998 10.7499 20.4598 10.3999 20.4598 9.97994C20.4598 6.42994 17.5698 3.54994 14.0298 3.54994C13.5998 3.54994 13.2598 3.19994 13.2598 2.77994C13.2598 2.35994 13.5998 1.99994 14.0198 1.99994C18.4198 1.99994 21.9998 5.57994 21.9998 9.97994C21.9998 10.3999 21.6498 10.7499 21.2298 10.7499Z" fill="white"/>
<path d="M11.0505 14.9499L9.20049 16.7999C8.81049 17.1899 8.19049 17.1899 7.79049 16.8099C7.68049 16.6999 7.57049 16.5999 7.46049 16.4899C6.43049 15.4499 5.50049 14.3599 4.67049 13.2199C3.85049 12.0799 3.19049 10.9399 2.71049 9.80994C2.24049 8.66994 2.00049 7.57994 2.00049 6.53994C2.00049 5.85994 2.12049 5.20994 2.36049 4.60994C2.60049 3.99994 2.98049 3.43994 3.51049 2.93994C4.15049 2.30994 4.85049 1.99994 5.59049 1.99994C5.87049 1.99994 6.15049 2.05994 6.40049 2.17994C6.66049 2.29994 6.89049 2.47994 7.07049 2.73994L9.39049 6.00994C9.57049 6.25994 9.70049 6.48994 9.79049 6.70994C9.88049 6.91994 9.93049 7.12994 9.93049 7.31994C9.93049 7.55994 9.86049 7.79994 9.72049 8.02994C9.59049 8.25994 9.40049 8.49994 9.16049 8.73994L8.40049 9.52994C8.29049 9.63994 8.24049 9.76994 8.24049 9.92994C8.24049 10.0099 8.25049 10.0799 8.27049 10.1599C8.30049 10.2399 8.33049 10.2999 8.35049 10.3599C8.53049 10.6899 8.84049 11.1199 9.28049 11.6399C9.73049 12.1599 10.2105 12.6899 10.7305 13.2199C10.8305 13.3199 10.9405 13.4199 11.0405 13.5199C11.4405 13.9099 11.4505 14.5499 11.0505 14.9499Z" fill="white"/>
<path d="M21.9701 18.33C21.9701 18.61 21.9201 18.9 21.8201 19.18C21.7901 19.26 21.7601 19.34 21.7201 19.42C21.5501 19.78 21.3301 20.12 21.0401 20.44C20.5501 20.98 20.0101 21.37 19.4001 21.62C19.3901 21.62 19.3801 21.63 19.3701 21.63C18.7801 21.87 18.1401 22 17.4501 22C16.4301 22 15.3401 21.76 14.1901 21.27C13.0401 20.78 11.8901 20.12 10.7501 19.29C10.3601 19 9.9701 18.71 9.6001 18.4L12.8701 15.13C13.1501 15.34 13.4001 15.5 13.6101 15.61C13.6601 15.63 13.7201 15.66 13.7901 15.69C13.8701 15.72 13.9501 15.73 14.0401 15.73C14.2101 15.73 14.3401 15.67 14.4501 15.56L15.2101 14.81C15.4601 14.56 15.7001 14.37 15.9301 14.25C16.1601 14.11 16.3901 14.04 16.6401 14.04C16.8301 14.04 17.0301 14.08 17.2501 14.17C17.4701 14.26 17.7001 14.39 17.9501 14.56L21.2601 16.91C21.5201 17.09 21.7001 17.3 21.8101 17.55C21.9101 17.8 21.9701 18.05 21.9701 18.33Z" fill="white"/>
</svg>
