<svg width="76" height="54" viewBox="0 0 76 54" fill="none" xmlns="http://www.w3.org/2000/svg">
<path fill-rule="evenodd" clip-rule="evenodd" d="M3.33678 13.7487C3.33678 6.43155 18.278 0.5 36.7099 0.5C55.1414 0.5 70.083 6.43155 70.083 13.7487C70.083 21.0658 55.1414 26.9974 36.7099 26.9974C18.2784 26.9974 3.33678 21.0662 3.33678 13.7487ZM44.1533 14.9087C44.1488 14.887 44.1377 14.8671 44.1216 14.8517C44.1055 14.8362 44.085 14.826 44.0629 14.8224C43.1024 14.6831 42.1377 14.5738 41.1703 14.4946C41.1133 14.4848 41.0731 14.4324 41.1107 14.3083C44.1951 11.0873 45.3667 6.98857 43.8072 3.78181C43.8089 3.7672 43.8135 3.75307 43.8208 3.74024C43.828 3.7274 43.8377 3.71611 43.8494 3.707C43.861 3.69789 43.8744 3.69115 43.8886 3.68717C43.9029 3.68318 43.9178 3.68202 43.9326 3.68376C54.5467 4.96148 62.2964 8.98436 62.2964 13.7487C62.2964 19.5414 50.8413 24.2375 36.7103 24.2375C22.5792 24.2375 11.1237 19.5418 11.1237 13.7487C11.1237 8.72715 19.7334 4.52929 31.2322 3.50085C31.2881 3.50273 31.3352 3.54535 31.3382 3.63284L28.8416 17.2768C28.795 17.5165 28.8023 17.7635 28.8631 18.0001C28.9238 18.2367 29.0366 18.457 29.1932 18.6453C29.3498 18.8336 29.5464 18.9853 29.769 19.0893C29.9915 19.1934 30.2345 19.2473 30.4806 19.2473L30.5699 19.2518C32.7967 19.1368 35.1895 18.447 37.4498 17.1519C38.0903 16.785 38.7067 16.3781 39.2954 15.9338C39.3123 15.92 39.333 15.9115 39.3548 15.9094C39.3766 15.9074 39.3985 15.9118 39.4178 15.9221C40.1706 16.4195 40.6038 17.0018 40.6038 17.6249C40.6038 18.4711 39.8042 19.2431 38.4891 19.8288C36.9611 20.5092 34.7369 20.9368 32.2605 20.9368C30.1617 20.9368 28.2443 20.6295 26.7566 20.1166C26.7422 20.114 26.7274 20.1143 26.7131 20.1175C26.6988 20.1206 26.6853 20.1265 26.6733 20.1349C26.6614 20.1432 26.6512 20.1538 26.6433 20.1661C26.6355 20.1783 26.6302 20.192 26.6277 20.2063L26.4157 21.363C26.4121 21.3905 26.4191 21.4184 26.4352 21.4411C26.4513 21.4638 26.4754 21.4797 26.5027 21.4856C29.5287 22.1844 33.0087 22.5819 36.7126 22.5819C41.3201 22.5819 45.0562 21.0986 45.0562 19.2699C45.0562 18.5583 44.4915 17.8994 43.5309 17.3601C42.6892 16.9505 42.1591 16.4195 42.2891 16.0635C42.424 15.6943 43.2292 15.6351 44.1856 15.8908C44.24 15.898 44.2924 15.8655 44.3118 15.769L44.1533 14.9087ZM36.7099 6.55789C36.7099 6.62954 36.7076 6.70082 36.7031 6.77059C36.8247 9.20197 35.31 12.4547 32.5424 15.2014C31.9931 15.7476 31.408 16.2572 30.791 16.7269C30.7667 16.7424 30.7372 16.7477 30.7089 16.7416C30.6512 16.7295 30.6136 16.6749 30.6238 16.6077L33.3363 1.78942C33.3348 1.76202 33.3231 1.73614 33.3036 1.71677C33.284 1.69741 33.2579 1.68594 33.2302 1.68457C18.281 2.38227 6.67394 7.51731 6.67394 13.7487C6.67394 20.456 20.1214 25.8931 36.7099 25.8931C53.2988 25.8931 66.7462 20.456 66.7462 13.7487C66.7462 7.04137 53.2992 1.60425 36.7099 1.60425C36.1844 1.60425 35.6615 1.6099 35.1371 1.62084C35.1122 1.62095 35.0881 1.62928 35.0686 1.64451C35.049 1.65974 35.0352 1.68101 35.0292 1.70494L34.7119 3.43409C34.7043 3.48048 34.7263 3.52461 34.7651 3.54761C35.3456 3.81199 35.8374 4.23618 36.1821 4.76979C36.5269 5.3034 36.7101 5.92401 36.7099 6.55789ZM5.60576 33.6217V49.8486H14.684V53.5H0V33.6217H5.60576ZM27.5394 45.4452L24.9204 38.2057L22.3022 45.4452H27.5394ZM28.4818 33.6304L36.0932 53.4947H30.2624L28.5863 48.8039H21.2549L19.5791 53.4947H14.9002L22.4413 33.6304H28.4818ZM42.3027 49.8373H44.8161C46.3174 49.8373 48.3079 49.5774 49.5995 47.8683C50.8904 46.1602 50.9261 44.1618 50.9261 43.3514C50.9261 42.3082 50.7862 40.1951 49.2856 38.7179C47.8884 37.3862 46.0727 37.2701 44.7116 37.2701H42.3027V49.8373ZM36.716 33.6217H44.9206C47.2952 33.6217 50.8907 33.8533 53.6495 36.199C55.8839 38.0813 56.9312 41.1508 56.9312 43.5252C56.9312 45.2623 56.3734 48.8239 53.3007 51.2278C50.8562 53.1387 48.0985 53.4864 45.5145 53.4864H36.7164L36.716 33.6217ZM67.4462 45.4361L64.828 38.1971L62.2094 45.4361H67.4462ZM68.389 33.6217L76 53.486H70.1693L68.4939 48.7949H61.1621L59.4856 53.486H54.807L62.3489 33.6213L68.389 33.6217Z" fill="white"/>
</svg>
