<svg width="18" height="22" viewBox="0 0 18 22" fill="none" xmlns="http://www.w3.org/2000/svg">
<path d="M17.6201 7.45006C16.5701 2.83006 12.5401 0.750061 9.0001 0.750061C9.0001 0.750061 9.0001 0.750061 8.9901 0.750061C5.4601 0.750061 1.4201 2.82006 0.370095 7.44006C-0.799905 12.6001 2.3601 16.9701 5.2201 19.7201C6.2801 20.7401 7.6401 21.2501 9.0001 21.2501C10.3601 21.2501 11.7201 20.7401 12.7701 19.7201C15.6301 16.9701 18.7901 12.6101 17.6201 7.45006ZM9.0001 12.4601C7.2601 12.4601 5.8501 11.0501 5.8501 9.31006C5.8501 7.57006 7.2601 6.16006 9.0001 6.16006C10.7401 6.16006 12.1501 7.57006 12.1501 9.31006C12.1501 11.0501 10.7401 12.4601 9.0001 12.4601Z" fill="white"/>
</svg>
